<svg xmlns="http://www.w3.org/2000/svg" xmlns:xlink="http://www.w3.org/1999/xlink" viewBox="0 0 512 512" width="512"
     height="512" preserveAspectRatio="xMidYMid meet"
     style="width: 100%; height: 100%; transform: translate3d(0px, 0px, 0px); content-visibility: visible;">
    <defs>
        <clipPath id="__lottie_element_591">
            <rect width="512" height="512" x="0" y="0"/>
        </clipPath>
        <clipPath id="__lottie_element_593">
            <path d="M0,0 L512,0 L512,512 L0,512z"/>
        </clipPath>
        <clipPath id="__lottie_element_597">
            <path d="M0,0 L512,0 L512,512 L0,512z"/>
        </clipPath>
        <clipPath id="__lottie_element_601">
            <path d="M0,0 L512,0 L512,512 L0,512z"/>
        </clipPath>
        <radialGradient id="__lottie_element_639" spreadMethod="pad" gradientUnits="userSpaceOnUse" cx="0" cy="0"
                        r="100" fx="0" fy="0">
            <stop offset="15%" stop-color="rgb(255,146,39)"/>
            <stop offset="24%" stop-color="rgb(255,179,39)"/>
            <stop offset="54%" stop-color="rgb(255,213,39)"/>
        </radialGradient>
        <radialGradient id="__lottie_element_643" spreadMethod="pad" gradientUnits="userSpaceOnUse" cx="0" cy="0"
                        r="100" fx="0" fy="0">
            <stop offset="15%" stop-color="rgb(255,146,39)"/>
            <stop offset="24%" stop-color="rgb(255,179,39)"/>
            <stop offset="54%" stop-color="rgb(255,213,39)"/>
        </radialGradient>
        <clipPath id="__lottie_element_960">
            <path d="M0,0 L512,0 L512,512 L0,512z"/>
        </clipPath>
        <clipPath id="__lottie_element_973">
            <path d="M0,0 L512,0 L512,512 L0,512z"/>
        </clipPath>
        <clipPath id="__lottie_element_977">
            <path d="M0,0 L512,0 L512,512 L0,512z"/>
        </clipPath>
        <clipPath id="__lottie_element_981">
            <path d="M0,0 L512,0 L512,512 L0,512z"/>
        </clipPath>
        <radialGradient id="__lottie_element_1019" spreadMethod="pad" gradientUnits="userSpaceOnUse" cx="0" cy="0"
                        r="100" fx="0" fy="0">
            <stop offset="15%" stop-color="rgb(255,146,39)"/>
            <stop offset="24%" stop-color="rgb(255,179,39)"/>
            <stop offset="54%" stop-color="rgb(255,213,39)"/>
        </radialGradient>
        <radialGradient id="__lottie_element_1023" spreadMethod="pad" gradientUnits="userSpaceOnUse" cx="0" cy="0"
                        r="100" fx="0" fy="0">
            <stop offset="15%" stop-color="rgb(255,146,39)"/>
            <stop offset="24%" stop-color="rgb(255,179,39)"/>
            <stop offset="54%" stop-color="rgb(255,213,39)"/>
        </radialGradient>
        <clipPath id="__lottie_element_1341">
            <path d="M0,0 L512,0 L512,512 L0,512z"/>
        </clipPath>
    </defs>
    <g clip-path="url(#__lottie_element_591)">
        <g clip-path="url(#__lottie_element_593)" transform="matrix(1,0,0,1,0,0)" opacity="1" style="display: none;">
            <g clip-path="url(#__lottie_element_597)" transform="matrix(1,0,0,0.800000011920929,13,112.39999389648438)"
               opacity="1" style="display: none;"/>
            <g clip-path="url(#__lottie_element_960)" transform="matrix(1,0,0,0.800000011920929,13,112.39999389648438)"
               opacity="1" style="display: block;">
                <g transform="matrix(0.7003309726715088,0,0,0.7003309726715088,134.02908325195312,386.3325500488281)"
                   opacity="1" style="display: block;">
                    <g opacity="1" transform="matrix(1,0,0,1,176.4949951171875,64.81999969482422)">
                        <path stroke-linecap="round" stroke-linejoin="round" fill-opacity="0" stroke="rgb(3,180,255)"
                              stroke-opacity="1" stroke-width="4.583214891796326"
                              d=" M151.4949951171875,0 C151.4949951171875,21.992000579833984 83.66899871826172,39.81999969482422 0.0010000000474974513,39.81999969482422 C-83.66699981689453,39.81999969482422 -151.49400329589844,21.992000579833984 -151.49400329589844,0 C-151.49400329589844,-21.992000579833984 -83.66699981689453,-39.81999969482422 0.0010000000474974513,-39.81999969482422 C83.66899871826172,-39.81999969482422 151.4949951171875,-21.992000579833984 151.4949951171875,0z"/>
                    </g>
                </g>
            </g>
            <g clip-path="url(#__lottie_element_601)" transform="matrix(1,0,0,0.800000011920929,13,112.39999389648438)"
               opacity="1" style="display: block;">
                <g transform="matrix(1.5022599697113037,0,0,1.5022599697113037,-7.507354736328125,334.35150146484375)"
                   opacity="1" style="display: block;">
                    <g opacity="1" transform="matrix(1,0,0,1,176.4949951171875,64.81999969482422)">
                        <path stroke-linecap="round" stroke-linejoin="round" fill-opacity="0" stroke="rgb(3,180,255)"
                              stroke-opacity="1" stroke-width="0"
                              d=" M151.4949951171875,0 C151.4949951171875,21.992000579833984 83.66899871826172,39.81999969482422 0.0010000000474974513,39.81999969482422 C-83.66699981689453,39.81999969482422 -151.49400329589844,21.992000579833984 -151.49400329589844,0 C-151.49400329589844,-21.992000579833984 -83.66699981689453,-39.81999969482422 0.0010000000474974513,-39.81999969482422 C83.66899871826172,-39.81999969482422 151.4949951171875,-21.992000579833984 151.4949951171875,0z"/>
                    </g>
                </g>
            </g>
            <g transform="matrix(1.049178957939148,0.041515789926052094,-0.041515789926052094,1.049178957939148,95.47503662109375,185.37294006347656)"
               opacity="1" style="display: block;">
                <path fill="rgb(255,213,39)" fill-opacity="1"
                      d=" M87.25,255.02 C50.72,246.05 37.38,204.69 37.38,173.7 C37.38,143.19 42.43,113.55 75.41,86.2 C105.15,61.53 163.74,32.48 208.14,31.9 C278.33,30.98 321.45,63.24 330.68,74.55 C347.92,95.7 364.79,127.46 366.2,173.4 C367.24,207.08 349.11,245.79 298.59,254.1 C226.17,266.01 150.01,270.44 87.25,255.02z"/>
                <g opacity="1" transform="matrix(1,0,0,1,205.83900451660156,156.75)">
                    <path stroke-linecap="round" stroke-linejoin="miter" fill-opacity="0" stroke-miterlimit="10"
                          stroke="rgb(249,143,22)" stroke-opacity="1" stroke-width="20"
                          d=" M-118.58899688720703,98.27200317382812 C-155.11500549316406,89.30000305175781 -168.45799255371094,47.94300079345703 -168.45799255371094,16.94700050354004 C-168.45799255371094,-13.5649995803833 -163.40899658203125,-43.196998596191406 -130.43099975585938,-70.55000305175781 C-100.68699645996094,-95.22000122070312 -42.097999572753906,-124.2699966430664 2.305000066757202,-124.8499984741211 C72.48799896240234,-125.76699829101562 115.61199951171875,-93.51000213623047 124.83799743652344,-82.19599914550781 C142.08200073242188,-61.04999923706055 158.9550018310547,-29.285999298095703 160.36300659179688,16.645000457763672 C161.39599609375,50.334999084472656 143.27200317382812,89.04399871826172 92.75499725341797,97.35099792480469 C20.326000213623047,109.26100158691406 -55.83100128173828,113.68699645996094 -118.58899688720703,98.27200317382812z"/>
                </g>
            </g>
            <g transform="matrix(1.049178957939148,0.041515789926052094,-0.041515789926052094,1.049178957939148,-182.9870147705078,190.48753356933594)"
               opacity="1" style="display: block;">
                <path fill="rgb(255,213,39)" fill-opacity="1"
                      d=" M321.35,147.86 C303.23,124.82 292.17,131.72 287.86,139.23 C271.94,166.94 300.63,228.3 351.7,243.95"/>
                <g opacity="1" transform="matrix(1,0,0,1,205.83900451660156,156.75)">
                    <path stroke-linecap="round" stroke-linejoin="miter" fill-opacity="0" stroke-miterlimit="10"
                          stroke="rgb(249,143,22)" stroke-opacity="1" stroke-width="10"
                          d=" M115.50900268554688,-8.892000198364258 C97.38899993896484,-31.929000854492188 86.33200073242188,-25.025999069213867 82.02100372314453,-17.52199935913086 C66.10099792480469,10.1899995803833 94.78600311279297,71.552001953125 145.86199951171875,87.2040023803711"/>
                </g>
            </g>
            <g transform="matrix(1.049178957939148,0.041515789926052094,-0.041515789926052094,1.049178957939148,95.47503662109375,185.37294006347656)"
               opacity="1" style="display: block;">
                <path fill="rgb(255,213,39)" fill-opacity="1"
                      d=" M87.25,255.02 C50.72,246.05 37.38,204.69 37.38,173.7 C37.38,143.19 42.43,113.55 75.41,86.2 C105.15,61.53 163.74,32.48 208.14,31.9 C278.33,30.98 321.45,63.24 330.68,74.55 C347.92,95.7 364.79,127.46 366.2,173.4 C367.24,207.08 349.11,245.79 298.59,254.1 C226.17,266.01 150.01,270.44 87.25,255.02z"/>
                <g opacity="1" transform="matrix(1,0,0,1,205.83900451660156,156.75)"/>
            </g>
            <g transform="matrix(1.0472136735916138,-0.07644318044185638,0.07644318044185638,1.0472136735916138,98.82479095458984,286.3919677734375)"
               opacity="1" style="display: block;">
                <g opacity="1" transform="matrix(1,0,0,1,38.819000244140625,73.84600067138672)">
                    <path stroke-linecap="round" stroke-linejoin="round" fill-opacity="0" stroke="rgb(255,255,255)"
                          stroke-opacity="1" stroke-width="10"
                          d=" M-4.084000110626221,21.915000915527344 C-1.9279999732971191,43.37200164794922 5.706999778747559,65.37899780273438 22.55699920654297,76.92900085449219"/>
                </g>
            </g>
            <g transform="matrix(1.049178957939148,0.041515789926052094,-0.041515789926052094,1.049178957939148,417.532470703125,338.0577697753906)"
               opacity="1" style="display: block;">
                <g opacity="1" transform="matrix(1,0,0,1,35.6879997253418,48.13999938964844)">
                    <path stroke-linecap="round" stroke-linejoin="round" fill-opacity="0" stroke="rgb(251,237,32)"
                          stroke-opacity="1" stroke-width="10"
                          d=" M-16.527999877929688,44.481998443603516 C0.5699999928474426,31.077999114990234 17.94300079345703,5.945000171661377 0.33000001311302185,-56.09000015258789"/>
                </g>
            </g>
            <g transform="matrix(0.9999990463256836,0,0,0.9999990463256836,308.1320495605469,256.00048828125)"
               opacity="1" style="display: block;">
                <g opacity="1" transform="matrix(1,0,0,1,150.06199645996094,56.077999114990234)">
                    <path fill="rgb(255,213,39)" fill-opacity="1"
                          d=" M0,-11.57800006866455 C6.380791664123535,-11.57800006866455 11.56149959564209,-6.389898300170898 11.56149959564209,0 C11.56149959564209,6.389898300170898 6.380791664123535,11.57800006866455 0,11.57800006866455 C-6.380791664123535,11.57800006866455 -11.56149959564209,6.389898300170898 -11.56149959564209,0 C-11.56149959564209,-6.389898300170898 -6.380791664123535,-11.57800006866455 0,-11.57800006866455z"/>
                </g>
            </g>
            <g transform="matrix(0.9266851544380188,-0.37583574652671814,-0.37583574652671814,-0.9266851544380188,438.8324890136719,465.544189453125)"
               opacity="1" style="display: block;">
                <path fill="rgb(255,213,39)" fill-opacity="1"
                      d=" M66.92,189.21 C124.76,143.69 107.17,78.52 87.65,52.32 C79.26,41.06 66.64,36.15 58.16,44.12 C69.84,63.99 85.52,101.33 79.21,127.54"/>
                <g opacity="1" transform="matrix(1,0,0,1,74.38400268554688,100.1780014038086)">
                    <path stroke-linecap="round" stroke-linejoin="miter" fill-opacity="0" stroke-miterlimit="10"
                          stroke="rgb(249,143,22)" stroke-opacity="1" stroke-width="10"
                          d=" M-7.460000038146973,89.0270004272461 C50.37699890136719,43.51100158691406 32.78499984741211,-21.655000686645508 13.26200008392334,-47.85599899291992 C4.872000217437744,-59.117000579833984 -7.744999885559082,-64.02899932861328 -16.22800064086914,-56.058998107910156 C-4.546999931335449,-36.189998626708984 11.13700008392334,1.152999997138977 4.828000068664551,27.358999252319336"/>
                </g>
            </g>
            <g transform="matrix(1.0491777658462524,0.04151573404669762,-0.04151573404669762,1.0491777658462524,402.9046325683594,248.55340576171875)"
               opacity="1" style="display: block;">
                <g opacity="1" transform="matrix(1,0,0,1,35.28499984741211,48.323001861572266)">
                    <path stroke-linecap="round" stroke-linejoin="round" fill-opacity="0" stroke="rgb(251,237,32)"
                          stroke-opacity="1" stroke-width="7.000000304687005"
                          d=" M55.516998291015625,64.90599822998047 C51.98899841308594,35.16899871826172 47.05099868774414,15.335000038146973 20.139999389648438,-7.755000114440918"/>
                </g>
            </g>
            <g transform="matrix(1.0583677291870117,0.3088066875934601,-0.3088066875934601,1.0583677291870117,156.25924682617188,-76.0445556640625)"
               opacity="1" style="display: block;">
                <g opacity="1" transform="matrix(1,0,0,1,196.52099609375,174.67799377441406)">
                    <path fill="rgb(255,213,39)" fill-opacity="1"
                          d=" M151.13800048828125,75.11000061035156 C164.97799682617188,50.76599884033203 170.031005859375,22.606000900268555 164.11500549316406,-7.175000190734863 C148.4239959716797,-86.15599822998047 61.35599899291992,-149.67799377441406 -26.993999481201172,-132.12600708007812 C-115.34500122070312,-114.5739974975586 -171.52099609375,-22.594999313354492 -155.8300018310547,56.38600158691406 C-149.42100524902344,88.6500015258789 -128.55799865722656,122.20700073242188 -102.23600006103516,141.76600646972656"/>
                    <path stroke-linecap="round" stroke-linejoin="miter" fill-opacity="0" stroke-miterlimit="10"
                          stroke="rgb(249,143,22)" stroke-opacity="1" stroke-width="9.5"
                          d=" M151.13800048828125,75.11000061035156 C164.97799682617188,50.76599884033203 170.031005859375,22.606000900268555 164.11500549316406,-7.175000190734863 C148.4239959716797,-86.15599822998047 61.35599899291992,-149.67799377441406 -26.993999481201172,-132.12600708007812 C-115.34500122070312,-114.5739974975586 -171.52099609375,-22.594999313354492 -155.8300018310547,56.38600158691406 C-149.42100524902344,88.6500015258789 -128.55799865722656,122.20700073242188 -102.23600006103516,141.76600646972656"/>
                </g>
            </g>
            <g transform="matrix(0.9816998839378357,0.19043196737766266,-0.19043196737766266,0.9816998839378357,343.545166015625,265.05743408203125)"
               opacity="1.2022416782997426e-7" style="display: block;">
                <g opacity="1" transform="matrix(1,0,0,1,88.44499969482422,-36.10200119018555)">
                    <path fill="url(#__lottie_element_639)" fill-opacity="1"
                          d=" M0,-32.88650131225586 C18.150060653686523,-32.88650131225586 32.88650131225586,-18.150060653686523 32.88650131225586,0 C32.88650131225586,18.150060653686523 18.150060653686523,32.88650131225586 0,32.88650131225586 C-18.150060653686523,32.88650131225586 -32.88650131225586,18.150060653686523 -32.88650131225586,0 C-32.88650131225586,-18.150060653686523 -18.150060653686523,-32.88650131225586 0,-32.88650131225586z"/>
                </g>
            </g>
            <g transform="matrix(0.9816998839378357,0.19043196737766266,-0.19043196737766266,0.9816998839378357,129.39077758789062,240.87045288085938)"
               opacity="1.2022416782997426e-7" style="display: block;">
                <g opacity="1" transform="matrix(1,0,0,1,88.44499969482422,-36.10200119018555)">
                    <path fill="url(#__lottie_element_643)" fill-opacity="1"
                          d=" M0,-32.88650131225586 C18.150060653686523,-32.88650131225586 32.88650131225586,-18.150060653686523 32.88650131225586,0 C32.88650131225586,18.150060653686523 18.150060653686523,32.88650131225586 0,32.88650131225586 C-18.150060653686523,32.88650131225586 -32.88650131225586,18.150060653686523 -32.88650131225586,0 C-32.88650131225586,-18.150060653686523 -18.150060653686523,-32.88650131225586 0,-32.88650131225586z"/>
                </g>
            </g>
            <g transform="matrix(0.4829404056072235,0.9910964369773865,-0.9910964369773865,0.4829404056072235,321.7572021484375,-17.522789001464844)"
               opacity="1" style="display: block;">
                <g opacity="1" transform="matrix(1,0,0,1,49.17599868774414,105.06700134277344)">
                    <path stroke-linecap="round" stroke-linejoin="round" fill-opacity="0" stroke="rgb(255,255,255)"
                          stroke-opacity="1" stroke-width="10"
                          d=" M19.926000595092773,89.20099639892578 C27.19300079345703,97.16000366210938 35.86600112915039,104.58300018310547 46.14500045776367,111.23699951171875"/>
                </g>
            </g>
            <g transform="matrix(0.4829404056072235,0.9910964369773865,-0.9910964369773865,0.4829404056072235,321.7572021484375,-17.522789001464844)"
               opacity="1" style="display: block;">
                <g opacity="1" transform="matrix(1,0,0,1,49.17599868774414,105.06700134277344)">
                    <path stroke-linecap="round" stroke-linejoin="round" fill-opacity="0" stroke="rgb(255,255,255)"
                          stroke-opacity="1" stroke-width="10"
                          d=" M7.406000137329102,-80.06800079345703 C-9.0649995803833,-57.87799835205078 -27.37299919128418,10.262999534606934 3.059999942779541,65.6510009765625"/>
                </g>
            </g>
            <g transform="matrix(1.0583677291870117,0.3088066875934601,-0.3088066875934601,1.0583677291870117,376.8858642578125,47.83019256591797)"
               opacity="1" style="display: block;">
                <g opacity="1" transform="matrix(1,0,0,1,71.9540023803711,84.74400329589844)">
                    <path stroke-linecap="round" stroke-linejoin="round" fill-opacity="0" stroke="rgb(251,237,32)"
                          stroke-opacity="1" stroke-width="10"
                          d=" M42.849998474121094,36.52299880981445 C37.45100021362305,16.509000778198242 27.37299919128418,-2.749000072479248 13.333000183105469,-19.091999053955078 C-0.8270000219345093,-35.57500076293945 -19.01799964904785,-49.09299850463867 -40.50199890136719,-57.43000030517578"/>
                </g>
            </g>
            <g transform="matrix(1.0851118564605713,0.19502738118171692,-0.21454960107803345,1.1937315464019775,223.25767517089844,304.8639221191406)"
               opacity="1" style="display: block;">
                <g opacity="1" transform="matrix(1,0,0,1,145.42599487304688,-113.83100128173828)">
                    <path fill="rgb(0,0,0)" fill-opacity="1"
                          d=" M0,-24.16900062561035 C8.689000129699707,-24.16900062561035 16.110000610351562,-17.749000549316406 19.062000274658203,-8.699999809265137 C19.94300079345703,-6.000999927520752 20.426000595092773,-3.066999912261963 20.426000595092773,0 C20.426000595092773,2.9730000495910645 19.972000122070312,5.821000099182129 19.142000198364258,8.45199966430664 C16.246000289916992,17.631999969482422 8.767999649047852,24.16900062561035 0,24.16900062561035 C-8.336000442504883,24.16900062561035 -15.505999565124512,18.26099967956543 -18.680999755859375,9.789999961853027 C-19.80299949645996,6.796999931335449 -20.426000595092773,3.484999895095825 -20.426000595092773,0 C-20.426000595092773,-2.872999906539917 -20.00200080871582,-5.627999782562256 -19.225000381469727,-8.184000015258789 C-16.391000747680664,-17.503999710083008 -8.852999687194824,-24.16900062561035 0,-24.16900062561035z"/>
                    <path stroke-linecap="butt" stroke-linejoin="miter" fill-opacity="0" stroke-miterlimit="4"
                          stroke="rgb(0,0,0)" stroke-opacity="1" stroke-width="3.6067250341886847e-7"
                          d=" M0,-24.16900062561035 C8.689000129699707,-24.16900062561035 16.110000610351562,-17.749000549316406 19.062000274658203,-8.699999809265137 C19.94300079345703,-6.000999927520752 20.426000595092773,-3.066999912261963 20.426000595092773,0 C20.426000595092773,2.9730000495910645 19.972000122070312,5.821000099182129 19.142000198364258,8.45199966430664 C16.246000289916992,17.631999969482422 8.767999649047852,24.16900062561035 0,24.16900062561035 C-8.336000442504883,24.16900062561035 -15.505999565124512,18.26099967956543 -18.680999755859375,9.789999961853027 C-19.80299949645996,6.796999931335449 -20.426000595092773,3.484999895095825 -20.426000595092773,0 C-20.426000595092773,-2.872999906539917 -20.00200080871582,-5.627999782562256 -19.225000381469727,-8.184000015258789 C-16.391000747680664,-17.503999710083008 -8.852999687194824,-24.16900062561035 0,-24.16900062561035z"/>
                </g>
            </g>
            <g transform="matrix(0.23116135597229004,0.04154667630791664,-0.04570549726486206,0.25430062413215637,366.6639709472656,220.24765014648438)"
               opacity="1" style="display: block;">
                <g opacity="1" transform="matrix(1,0,0,1,105.927001953125,-161.32000732421875)">
                    <path fill="rgb(255,255,255)" fill-opacity="1"
                          d=" M0,-24.16900062561035 C11.273109436035156,-24.16900062561035 20.426000595092773,-13.338871002197266 20.426000595092773,0 C20.426000595092773,13.338871002197266 11.273109436035156,24.16900062561035 0,24.16900062561035 C-11.273109436035156,24.16900062561035 -20.426000595092773,13.338871002197266 -20.426000595092773,0 C-20.426000595092773,-13.338871002197266 -11.273109436035156,-24.16900062561035 0,-24.16900062561035z"/>
                </g>
            </g>
            <g transform="matrix(1.2127765417099,-0.014140142127871513,0.014140142127871513,1.2127765417099,90.40966796875,321.0001525878906)"
               opacity="1" style="display: block;">
                <g opacity="1" transform="matrix(1,0,0,1,145.42599487304688,-113.83100128173828)">
                    <path fill="rgb(0,0,0)" fill-opacity="1"
                          d=" M0,-24.16900062561035 C8.689000129699707,-24.16900062561035 16.110000610351562,-17.749000549316406 19.062000274658203,-8.699999809265137 C19.94300079345703,-6.000999927520752 20.426000595092773,-3.066999912261963 20.426000595092773,0 C20.426000595092773,2.9730000495910645 19.972000122070312,5.821000099182129 19.142000198364258,8.45199966430664 C16.246000289916992,17.631999969482422 8.767999649047852,24.16900062561035 0,24.16900062561035 C-8.336000442504883,24.16900062561035 -15.505999565124512,18.26099967956543 -18.680999755859375,9.789999961853027 C-19.80299949645996,6.796999931335449 -20.426000595092773,3.484999895095825 -20.426000595092773,0 C-20.426000595092773,-2.872999906539917 -20.00200080871582,-5.627999782562256 -19.225000381469727,-8.184000015258789 C-16.391000747680664,-17.503999710083008 -8.852999687194824,-24.16900062561035 0,-24.16900062561035z"/>
                    <path stroke-linecap="butt" stroke-linejoin="miter" fill-opacity="0" stroke-miterlimit="4"
                          stroke="rgb(0,0,0)" stroke-opacity="1" stroke-width="3.6067250341886847e-7"
                          d=" M0,-24.16900062561035 C8.689000129699707,-24.16900062561035 16.110000610351562,-17.749000549316406 19.062000274658203,-8.699999809265137 C19.94300079345703,-6.000999927520752 20.426000595092773,-3.066999912261963 20.426000595092773,0 C20.426000595092773,2.9730000495910645 19.972000122070312,5.821000099182129 19.142000198364258,8.45199966430664 C16.246000289916992,17.631999969482422 8.767999649047852,24.16900062561035 0,24.16900062561035 C-8.336000442504883,24.16900062561035 -15.505999565124512,18.26099967956543 -18.680999755859375,9.789999961853027 C-19.80299949645996,6.796999931335449 -20.426000595092773,3.484999895095825 -20.426000595092773,0 C-20.426000595092773,-2.872999906539917 -20.00200080871582,-5.627999782562256 -19.225000381469727,-8.184000015258789 C-16.391000747680664,-17.503999710083008 -8.852999687194824,-24.16900062561035 0,-24.16900062561035z"/>
                </g>
            </g>
            <g transform="matrix(0.24262116849422455,-0.0059083388186991215,0.0059083388186991215,0.24262116849422455,230.55844116210938,209.36927795410156)"
               opacity="1" style="display: block;">
                <g opacity="1" transform="matrix(1,0,0,1,106.50800323486328,-164.6269989013672)">
                    <path fill="rgb(255,255,255)" fill-opacity="1"
                          d=" M0,-24.16900062561035 C11.273109436035156,-24.16900062561035 20.426000595092773,-13.338871002197266 20.426000595092773,0 C20.426000595092773,13.338871002197266 11.273109436035156,24.16900062561035 0,24.16900062561035 C-11.273109436035156,24.16900062561035 -20.426000595092773,13.338871002197266 -20.426000595092773,0 C-20.426000595092773,-13.338871002197266 -11.273109436035156,-24.16900062561035 0,-24.16900062561035z"/>
                </g>
            </g>
            <g transform="matrix(1.0469456911087036,0.3455550968647003,-0.3455550968647003,1.0469456911087036,260.15301513671875,159.48680114746094)"
               opacity="1" style="display: block;">
                <g opacity="1" transform="matrix(1,0,0,1,98.04100036621094,61.84400177001953)">
                    <path fill="rgb(255,93,31)" fill-opacity="1"
                          d=" M-85.91400146484375,23.849000930786133 C-83.25900268554688,39.36800003051758 -49.72600173950195,46.8650016784668 -8.732000350952148,38.72100067138672 C32.262001037597656,30.57699966430664 83.89600372314453,-6.783999919891357 57.33300018310547,-11.251999855041504 C64.80599975585938,-16.450000762939453 72.98500061035156,-33.749000549316406 31.31999969482422,-24.19499969482422 C18.22800064086914,-21.19300079345703 5.175000190734863,-45.176998138427734 -16.174999237060547,-40.93600082397461 C-40.00600051879883,-36.20199966430664 -40.321998596191406,-9.475000381469727 -60.066001892089844,-2.6649999618530273 C-76.27899932861328,2.927999973297119 -89.0009994506836,5.804999828338623 -85.91400146484375,23.849000930786133z"/>
                    <path stroke-linecap="round" stroke-linejoin="round" fill-opacity="0" stroke="rgb(207,53,2)"
                          stroke-opacity="1" stroke-width="8"
                          d=" M-85.91400146484375,23.849000930786133 C-83.25900268554688,39.36800003051758 -49.72600173950195,46.8650016784668 -8.732000350952148,38.72100067138672 C32.262001037597656,30.57699966430664 83.89600372314453,-6.783999919891357 57.33300018310547,-11.251999855041504 C64.80599975585938,-16.450000762939453 72.98500061035156,-33.749000549316406 31.31999969482422,-24.19499969482422 C18.22800064086914,-21.19300079345703 5.175000190734863,-45.176998138427734 -16.174999237060547,-40.93600082397461 C-40.00600051879883,-36.20199966430664 -40.321998596191406,-9.475000381469727 -60.066001892089844,-2.6649999618530273 C-76.27899932861328,2.927999973297119 -89.0009994506836,5.804999828338623 -85.91400146484375,23.849000930786133z"/>
                </g>
            </g>
            <g transform="matrix(1.0469456911087036,0.3455550968647003,-0.3455550968647003,1.0469456911087036,263.30010986328125,196.33424377441406)"
               opacity="1" style="display: block;">
                <g opacity="1" transform="matrix(1,0,0,1,81.50399780273438,36.75899887084961)">
                    <path stroke-linecap="round" stroke-linejoin="round" fill-opacity="0" stroke="rgb(125,9,9)"
                          stroke-opacity="1" stroke-width="7.2"
                          d=" M61.130001068115234,-17.52199935913086 C26.847000122070312,7.045000076293945 -20.51300048828125,22.677000045776367 -67.11699676513672,13.595999717712402"/>
                </g>
            </g>
            <g transform="matrix(1.0469456911087036,0.3455550968647003,-0.3455550968647003,1.0469456911087036,281.85504150390625,202.65933227539062)"
               opacity="1" style="display: block;">
                <g opacity="1" transform="matrix(1,0,0,1,24.70599937438965,22.10700035095215)">
                    <path stroke-linecap="round" stroke-linejoin="round" fill-opacity="0" stroke="rgb(255,180,132)"
                          stroke-opacity="1" stroke-width="8"
                          d=" M-19.70599937438965,16.01099967956543 C-2.0160000324249268,17.066999435424805 7.269000053405762,7.426000118255615 18.468000411987305,-14.633999824523926"/>
                </g>
            </g>
            <g transform="matrix(-0.9382925629615784,0.34583958983421326,0.34583958983421326,0.9382925629615784,180.4125213623047,178.98118591308594)"
               opacity="1" style="display: block;">
                <path fill="rgb(255,213,39)" fill-opacity="1"
                      d=" M82.33,175.36 C104.79,143.24 94.29,78.32 76.56,46.77 C62.81,23.57 46.77,20.75 36.81,24.96 C29.2,28.03 25.85,37.24 28.56,52.65 C33.74,72.53 35.11,114.1 21.72,128.17"/>
                <g opacity="1" transform="matrix(1,0,0,1,74.38400268554688,100.1780014038086)">
                    <path stroke-linecap="round" stroke-linejoin="miter" fill-opacity="0" stroke-miterlimit="10"
                          stroke="rgb(249,143,22)" stroke-opacity="1" stroke-width="10"
                          d=" M7.947000026702881,75.1780014038086 C30.40412712097168,43.060123443603516 19.91085433959961,-21.86249351501465 2.178097724914551,-53.40406036376953 C-11.575052261352539,-76.60704803466797 -27.616535186767578,-79.42638397216797 -37.572364807128906,-75.21788787841797 C-45.1826286315918,-72.14616394042969 -48.53603744506836,-62.93559646606445 -45.8199577331543,-47.52347946166992 C-40.64025115966797,-27.649658203125 -39.27240753173828,13.919183731079102 -52.66837692260742,27.98710060119629"/>
                </g>
            </g>
            <g transform="matrix(1.0482724905014038,0.06018456816673279,-0.06018456816673279,1.0482724905014038,403.0698547363281,252.77822875976562)"
               opacity="1" style="display: block;">
                <g opacity="1" transform="matrix(1,0,0,1,35.28499984741211,48.323001861572266)">
                    <path stroke-linecap="round" stroke-linejoin="round" fill-opacity="0" stroke="rgb(251,237,32)"
                          stroke-opacity="1" stroke-width="8"
                          d=" M-238.89700317382812,14.821999549865723 C-257.5050048828125,-1.1369999647140503 -267.99798583984375,-25.618000030517578 -268.3919982910156,-57.683998107910156"/>
                </g>
            </g>
            <g transform="matrix(1.0482724905014038,0.06018456816673279,-0.06018456816673279,1.0482724905014038,403.0698547363281,252.77822875976562)"
               opacity="1" style="display: block;">
                <g opacity="1" transform="matrix(1,0,0,1,35.28499984741211,48.323001861572266)">
                    <path stroke-linecap="round" stroke-linejoin="round" fill-opacity="0" stroke="rgb(255,255,255)"
                          stroke-opacity="1" stroke-width="8"
                          d=" M-287.6759948730469,-3.763000011444092 C-290.6409912109375,-20.415000915527344 -292.0480041503906,-41.71500015258789 -280.74798583984375,-58.051998138427734"/>
                </g>
            </g>
        </g>
        <g clip-path="url(#__lottie_element_973)" transform="matrix(1,0,0,1,0,0)" opacity="1" style="display: block;">
            <g clip-path="url(#__lottie_element_977)" transform="matrix(1,0,0,0.800000011920929,13,112.39999389648438)"
               opacity="1" style="display: block;">
                <g transform="matrix(1.0547802448272705,0,0,1.0547802448272705,71.47056579589844,363.3571472167969)"
                   opacity="1" style="display: block;">
                    <g opacity="1" transform="matrix(1,0,0,1,176.4949951171875,64.81999969482422)">
                        <path stroke-linecap="round" stroke-linejoin="round" fill-opacity="0" stroke="rgb(3,180,255)"
                              stroke-opacity="1" stroke-width="4.4716783258005695"
                              d=" M151.4949951171875,0 C151.4949951171875,21.992000579833984 83.66899871826172,39.81999969482422 0.0010000000474974513,39.81999969482422 C-83.66699981689453,39.81999969482422 -151.49400329589844,21.992000579833984 -151.49400329589844,0 C-151.49400329589844,-21.992000579833984 -83.66699981689453,-39.81999969482422 0.0010000000474974513,-39.81999969482422 C83.66899871826172,-39.81999969482422 151.4949951171875,-21.992000579833984 151.4949951171875,0z"/>
                    </g>
                </g>
            </g>
            <g clip-path="url(#__lottie_element_1341)" transform="matrix(1,0,0,0.800000011920929,13,112.39999389648438)"
               opacity="1" style="display: none;">
                <g transform="matrix(1.0265437364578247,0,0,1.0265437364578247,76.45417785644531,365.18743896484375)"
                   opacity="1" style="display: block;">
                    <g opacity="1" transform="matrix(1,0,0,1,176.4949951171875,64.81999969482422)">
                        <path stroke-linecap="round" stroke-linejoin="round" fill-opacity="0" stroke="rgb(3,180,255)"
                              stroke-opacity="1" stroke-width="5.265124566131595"
                              d=" M151.4949951171875,0 C151.4949951171875,21.992000579833984 83.66899871826172,39.81999969482422 0.0010000000474974513,39.81999969482422 C-83.66699981689453,39.81999969482422 -151.49400329589844,21.992000579833984 -151.49400329589844,0 C-151.49400329589844,-21.992000579833984 -83.66699981689453,-39.81999969482422 0.0010000000474974513,-39.81999969482422 C83.66899871826172,-39.81999969482422 151.4949951171875,-21.992000579833984 151.4949951171875,0z"/>
                    </g>
                </g>
            </g>
            <g clip-path="url(#__lottie_element_981)" transform="matrix(1,0,0,0.800000011920929,13,112.39999389648438)"
               opacity="1" style="display: none;">
                <g transform="matrix(1.5022599697113037,0,0,1.5022599697113037,-7.507354736328125,334.35150146484375)"
                   opacity="1" style="display: none;">
                    <g opacity="1" transform="matrix(1,0,0,1,176.4949951171875,64.81999969482422)">
                        <path stroke-linecap="round" stroke-linejoin="round" fill-opacity="0" stroke="rgb(3,180,255)"
                              stroke-opacity="1" stroke-width="0"
                              d=" M151.4949951171875,0 C151.4949951171875,21.992000579833984 83.66899871826172,39.81999969482422 0.0010000000474974513,39.81999969482422 C-83.66699981689453,39.81999969482422 -151.49400329589844,21.992000579833984 -151.49400329589844,0 C-151.49400329589844,-21.992000579833984 -83.66699981689453,-39.81999969482422 0.0010000000474974513,-39.81999969482422 C83.66899871826172,-39.81999969482422 151.4949951171875,-21.992000579833984 151.4949951171875,0z"/>
                    </g>
                </g>
            </g>
            <g transform="matrix(1.050565481185913,0.00881454348564148,-0.008804433979094028,1.0493605136871338,71.2205581665039,191.87173461914062)"
               opacity="1" style="display: block;">
                <path fill="rgb(255,213,39)" fill-opacity="1"
                      d=" M87.25,255.02 C50.72,246.05 37.38,204.69 37.38,173.7 C37.38,143.19 42.43,113.55 75.41,86.2 C105.15,61.53 163.74,32.48 208.14,31.9 C278.33,30.98 321.45,63.24 330.68,74.55 C347.92,95.7 364.79,127.46 366.2,173.4 C367.24,207.08 349.11,245.79 298.59,254.1 C226.17,266.01 150.01,270.44 87.25,255.02z"/>
                <g opacity="1" transform="matrix(1,0,0,1,205.83900451660156,156.75)">
                    <path stroke-linecap="round" stroke-linejoin="miter" fill-opacity="0" stroke-miterlimit="10"
                          stroke="rgb(249,143,22)" stroke-opacity="1" stroke-width="20"
                          d=" M-118.58899688720703,98.27200317382812 C-155.11500549316406,89.30000305175781 -168.45799255371094,47.94300079345703 -168.45799255371094,16.94700050354004 C-168.45799255371094,-13.5649995803833 -163.40899658203125,-43.196998596191406 -130.43099975585938,-70.55000305175781 C-100.68699645996094,-95.22000122070312 -42.097999572753906,-124.2699966430664 2.305000066757202,-124.8499984741211 C72.48799896240234,-125.76699829101562 115.61199951171875,-93.51000213623047 124.83799743652344,-82.19599914550781 C142.08200073242188,-61.04999923706055 158.9550018310547,-29.285999298095703 160.36300659179688,16.645000457763672 C161.39599609375,50.334999084472656 143.27200317382812,89.04399871826172 92.75499725341797,97.35099792480469 C20.326000213623047,109.26100158691406 -55.83100128173828,113.68699645996094 -118.58899688720703,98.27200317382812z"/>
                </g>
            </g>
            <g transform="matrix(1.050565481185913,0.00881454348564148,-0.008804433979094028,1.0493605136871338,80.13678741455078,195.0747528076172)"
               opacity="1" style="display: block;">
                <path fill="rgb(255,213,39)" fill-opacity="1"
                      d=" M308.95,149.86 C330.72,126.82 344,133.72 349.18,141.23 C368.3,168.94 369.53,234.85 294.86,252.59"/>
                <g opacity="1" transform="matrix(1,0,0,1,205.83900451660156,156.75)">
                    <path stroke-linecap="round" stroke-linejoin="miter" fill-opacity="0" stroke-miterlimit="10"
                          stroke="rgb(249,143,22)" stroke-opacity="1" stroke-width="10"
                          d=" M103.11467742919922,-6.891189098358154 C124.87909698486328,-29.92818832397461 138.15985107421875,-23.026180267333984 143.3385772705078,-15.52217960357666 C162.46002197265625,12.189820289611816 163.69357299804688,78.1014633178711 89.02469635009766,95.84445190429688"/>
                </g>
            </g>
            <g transform="matrix(1.050565481185913,0.00881454348564148,-0.008804433979094028,1.0493605136871338,71.2205581665039,191.87173461914062)"
               opacity="1" style="display: block;">
                <path fill="rgb(255,213,39)" fill-opacity="1"
                      d=" M87.25,255.02 C50.72,246.05 37.38,204.69 37.38,173.7 C37.38,143.19 42.43,113.55 75.41,86.2 C105.15,61.53 163.74,32.48 208.14,31.9 C278.33,30.98 321.45,63.24 330.68,74.55 C347.92,95.7 364.79,127.46 366.2,173.4 C367.24,207.08 349.11,245.79 298.59,254.1 C226.17,266.01 150.01,270.44 87.25,255.02z"/>
                <g opacity="1" transform="matrix(1,0,0,1,205.83900451660156,156.75)"/>
            </g>
            <g transform="matrix(1.044921875,-0.10895838588476181,0.10910360515117645,1.0437257289886475,77.72052764892578,292.6795349121094)"
               opacity="1" style="display: block;">
                <g opacity="1" transform="matrix(1,0,0,1,38.819000244140625,73.84600067138672)">
                    <path stroke-linecap="round" stroke-linejoin="round" fill-opacity="0" stroke="rgb(255,255,255)"
                          stroke-opacity="1" stroke-width="10"
                          d=" M-4.031000137329102,22.43000030517578 C-1.7860000133514404,43.904998779296875 5.9720001220703125,65.84200286865234 22.986000061035156,77.21900177001953"/>
                </g>
            </g>
            <g transform="matrix(1.050565481185913,0.00881454348564148,-0.008804433979094028,1.0493605136871338,398.0671691894531,334.3703918457031)"
               opacity="1" style="display: block;">
                <g opacity="1" transform="matrix(1,0,0,1,35.6879997253418,48.13999938964844)">
                    <path stroke-linecap="round" stroke-linejoin="round" fill-opacity="0" stroke="rgb(251,237,32)"
                          stroke-opacity="1" stroke-width="10"
                          d=" M-26.534000396728516,45.284000396728516 C-9.097000122070312,32.15399932861328 9.98799991607666,7.89900016784668 -14.008000373840332,-51.08000183105469"/>
                </g>
            </g>
            <g transform="matrix(1.0000866651535034,-0.031126517802476883,0.031181510537862778,0.9989404678344727,274.3714294433594,261.2142333984375)"
               opacity="1" style="display: block;">
                <g opacity="1" transform="matrix(1,0,0,1,150.06199645996094,56.077999114990234)">
                    <path fill="rgb(255,213,39)" fill-opacity="1"
                          d=" M0,-11.57800006866455 C6.380791664123535,-11.57800006866455 11.56149959564209,-6.389898300170898 11.56149959564209,0 C11.56149959564209,6.389898300170898 6.380791664123535,11.57800006866455 0,11.57800006866455 C-6.380791664123535,11.57800006866455 -11.56149959564209,6.389898300170898 -11.56149959564209,0 C-11.56149959564209,-6.389898300170898 -6.380791664123535,-11.57800006866455 0,-11.57800006866455z"/>
                </g>
            </g>
            <g transform="matrix(0.915047287940979,-0.4042823910713196,-0.40476417541503906,-0.914005696773529,411.6172180175781,466.4678649902344)"
               opacity="1" style="display: block;">
                <path fill="rgb(255,213,39)" fill-opacity="1"
                      d=" M89.8,168.87 C118.88,117.15 119.6,69 92.48,42.04 C72.06,21.76 52.74,29.65 59.59,48.09 C69.28,73.65 77.25,91.67 70.16,130.48"/>
                <g opacity="1" transform="matrix(1,0,0,1,74.38400268554688,100.1780014038086)">
                    <path stroke-linecap="round" stroke-linejoin="miter" fill-opacity="0" stroke-miterlimit="10"
                          stroke="rgb(249,143,22)" stroke-opacity="1" stroke-width="10"
                          d=" M15.42093563079834,68.6898193359375 C44.49437713623047,16.968400955200195 45.2205924987793,-31.173540115356445 18.09503746032715,-58.142913818359375 C-2.321612596511841,-78.41944885253906 -21.641098022460938,-70.52454376220703 -14.796208381652832,-52.09236526489258 C-5.104467868804932,-26.526893615722656 2.8660783767700195,-8.504164695739746 -4.222188472747803,30.297836303710938"/>
                </g>
            </g>
            <g transform="matrix(1.0505642890930176,0.008814522065222263,-0.008804412558674812,1.0493594408035278,368.92010498046875,250.82510375976562)"
               opacity="1" style="display: block;">
                <g opacity="1" transform="matrix(1,0,0,1,35.28499984741211,48.323001861572266)">
                    <path stroke-linecap="round" stroke-linejoin="round" fill-opacity="0" stroke="rgb(251,237,32)"
                          stroke-opacity="1" stroke-width="9.970521369818895"
                          d=" M59.19300079345703,61.68199920654297 C55.28900146484375,31.974000930786133 45.459999084472656,14.861000061035156 18.735000610351562,-8.178999900817871"/>
                </g>
            </g>
            <g transform="matrix(1.0986229181289673,0.09953974932432175,-0.0996328741312027,1.0973610877990723,70.10218811035156,-45.67402267456055)"
               opacity="1" style="display: block;">
                <g opacity="1" transform="matrix(1,0,0,1,196.52099609375,174.67799377441406)">
                    <path fill="rgb(255,213,39)" fill-opacity="1"
                          d=" M139.04600524902344,92.73999786376953 C161.73699951171875,64.84600067138672 171.52099609375,30.104999542236328 164.11500549316406,-7.175000190734863 C148.4239959716797,-86.15599822998047 61.35599899291992,-149.67799377441406 -26.993999481201172,-132.12600708007812 C-115.34500122070312,-114.5739974975586 -171.52099609375,-22.594999313354492 -155.8300018310547,56.38600158691406 C-149.8820037841797,86.33000183105469 -131.48399353027344,117.38800048828125 -107.82599639892578,137.3350067138672"/>
                    <path stroke-linecap="round" stroke-linejoin="miter" fill-opacity="0" stroke-miterlimit="10"
                          stroke="rgb(249,143,22)" stroke-opacity="1" stroke-width="9.5"
                          d=" M139.04600524902344,92.73999786376953 C161.73699951171875,64.84600067138672 171.52099609375,30.104999542236328 164.11500549316406,-7.175000190734863 C148.4239959716797,-86.15599822998047 61.35599899291992,-149.67799377441406 -26.993999481201172,-132.12600708007812 C-115.34500122070312,-114.5739974975586 -171.52099609375,-22.594999313354492 -155.8300018310547,56.38600158691406 C-149.8820037841797,86.33000183105469 -131.48399353027344,117.38800048828125 -107.82599639892578,137.3350067138672"/>
                </g>
            </g>
            <g transform="matrix(1.0119894742965698,0.08907201886177063,-0.08959731459617615,0.9800129532814026,301.45135498046875,261.94744873046875)"
               opacity="1" style="display: none;">
                <g opacity="1" transform="matrix(1,0,0,1,88.44499969482422,-36.10200119018555)">
                    <path fill="url(#__lottie_element_1019)" fill-opacity="1"
                          d=" M0,-32.88650131225586 C18.150060653686523,-32.88650131225586 32.88650131225586,-18.150060653686523 32.88650131225586,0 C32.88650131225586,18.150060653686523 18.150060653686523,32.88650131225586 0,32.88650131225586 C-18.150060653686523,32.88650131225586 -32.88650131225586,18.150060653686523 -32.88650131225586,0 C-32.88650131225586,-18.150060653686523 -18.150060653686523,-32.88650131225586 0,-32.88650131225586z"/>
                </g>
            </g>
            <g transform="matrix(1.0119894742965698,0.08907201886177063,-0.08959731459617615,0.9800129532814026,82.50747680664062,259.5080261230469)"
               opacity="1" style="display: none;">
                <g opacity="1" transform="matrix(1,0,0,1,88.44499969482422,-36.10200119018555)">
                    <path fill="url(#__lottie_element_1023)" fill-opacity="1"
                          d=" M0,-32.88650131225586 C18.150060653686523,-32.88650131225586 32.88650131225586,-18.150060653686523 32.88650131225586,0 C32.88650131225586,18.150060653686523 18.150060653686523,32.88650131225586 0,32.88650131225586 C-18.150060653686523,32.88650131225586 -32.88650131225586,18.150060653686523 -32.88650131225586,0 C-32.88650131225586,-18.150060653686523 -18.150060653686523,-32.88650131225586 0,-32.88650131225586z"/>
                </g>
            </g>
            <g transform="matrix(0.664850652217865,0.8792717456817627,-0.8802684545516968,0.664071261882782,243.86338806152344,-20.072134017944336)"
               opacity="1" style="display: block;">
                <g opacity="1" transform="matrix(1,0,0,1,49.17599868774414,105.06700134277344)">
                    <path stroke-linecap="round" stroke-linejoin="round" fill-opacity="0" stroke="rgb(255,255,255)"
                          stroke-opacity="1" stroke-width="10"
                          d=" M20.115999221801758,89.40899658203125 C27.399999618530273,97.3499984741211 36.0890007019043,104.75399780273438 46.38199996948242,111.38999938964844"/>
                </g>
            </g>
            <g transform="matrix(0.664850652217865,0.8792717456817627,-0.8802684545516968,0.664071261882782,243.86338806152344,-20.072134017944336)"
               opacity="1" style="display: block;">
                <g opacity="1" transform="matrix(1,0,0,1,49.17599868774414,105.06700134277344)">
                    <path stroke-linecap="round" stroke-linejoin="round" fill-opacity="0" stroke="rgb(255,255,255)"
                          stroke-opacity="1" stroke-width="10"
                          d=" M6.675000190734863,-79.05500030517578 C-9.704000473022461,-55.7130012512207 -27.155000686645508,11.977999687194824 3.6670000553131104,66.74299621582031"/>
                </g>
            </g>
            <g transform="matrix(1.0986229181289673,0.09953974932432175,-0.0996328741312027,1.0973610877990723,310.56597900390625,33.433868408203125)"
               opacity="1" style="display: block;">
                <g opacity="1" transform="matrix(1,0,0,1,71.9540023803711,84.74400329589844)">
                    <path stroke-linecap="round" stroke-linejoin="round" fill-opacity="0" stroke="rgb(251,237,32)"
                          stroke-opacity="1" stroke-width="10"
                          d=" M42.56700134277344,35.492000579833984 C37.10300064086914,15.847999572753906 27.131999969482422,-3.0299999713897705 13.333000183105469,-19.091999053955078 C-1.0460000038146973,-35.83000183105469 -19.582000732421875,-49.5099983215332 -41.5,-57.8129997253418"/>
                </g>
            </g>
            <g transform="matrix(1.2123907804489136,0.013843311928212643,-0.013848229311406612,1.2120840549468994,157.10256958007812,315.2263488769531)"
               opacity="1" style="display: block;">
                <g opacity="1" transform="matrix(1,0,0,1,145.42599487304688,-113.83100128173828)">
                    <path fill="rgb(0,0,0)" fill-opacity="1"
                          d=" M0,-24.16900062561035 C5.640999794006348,-24.16900062561035 10.746999740600586,-21.464000701904297 14.442999839782715,-17.09000015258789 C18.138999938964844,-12.715999603271484 20.426000595092773,-6.673999786376953 20.426000595092773,0 C20.426000595092773,6.673999786376953 18.138999938964844,12.715999603271484 14.442999839782715,17.09000015258789 C10.746999740600586,21.464000701904297 5.640999794006348,24.16900062561035 0,24.16900062561035 C-5.640999794006348,24.16900062561035 -10.746999740600586,21.464000701904297 -14.442999839782715,17.09000015258789 C-18.138999938964844,12.715999603271484 -20.426000595092773,6.673999786376953 -20.426000595092773,0 C-20.426000595092773,-6.673999786376953 -18.138999938964844,-12.715999603271484 -14.442999839782715,-17.09000015258789 C-10.746999740600586,-21.464000701904297 -5.640999794006348,-24.16900062561035 0,-24.16900062561035z"/>
                    <path stroke-linecap="butt" stroke-linejoin="miter" fill-opacity="0" stroke-miterlimit="4"
                          stroke="rgb(0,0,0)" stroke-opacity="1" stroke-width="0"
                          d=" M0,-24.16900062561035 C5.640999794006348,-24.16900062561035 10.746999740600586,-21.464000701904297 14.442999839782715,-17.09000015258789 C18.138999938964844,-12.715999603271484 20.426000595092773,-6.673999786376953 20.426000595092773,0 C20.426000595092773,6.673999786376953 18.138999938964844,12.715999603271484 14.442999839782715,17.09000015258789 C10.746999740600586,21.464000701904297 5.640999794006348,24.16900062561035 0,24.16900062561035 C-5.640999794006348,24.16900062561035 -10.746999740600586,21.464000701904297 -14.442999839782715,17.09000015258789 C-18.138999938964844,12.715999603271484 -20.426000595092773,6.673999786376953 -20.426000595092773,0 C-20.426000595092773,-6.673999786376953 -18.138999938964844,-12.715999603271484 -14.442999839782715,-17.09000015258789 C-10.746999740600586,-21.464000701904297 -5.640999794006348,-24.16900062561035 0,-24.16900062561035z"/>
                </g>
            </g>
            <g transform="matrix(0.2582756280899048,0.0029490399174392223,-0.0029500836972147226,0.2582102417945862,297.09625244140625,208.2302703857422)"
               opacity="1" style="display: block;">
                <g opacity="1" transform="matrix(1,0,0,1,105.927001953125,-161.32000732421875)">
                    <path fill="rgb(255,255,255)" fill-opacity="1"
                          d=" M0,-24.16900062561035 C11.273109436035156,-24.16900062561035 20.426000595092773,-13.338871002197266 20.426000595092773,0 C20.426000595092773,13.338871002197266 11.273109436035156,24.16900062561035 0,24.16900062561035 C-11.273109436035156,24.16900062561035 -20.426000595092773,13.338871002197266 -20.426000595092773,0 C-20.426000595092773,-13.338871002197266 -11.273109436035156,-24.16900062561035 0,-24.16900062561035z"/>
                </g>
            </g>
            <g transform="matrix(0.2658706605434418,0.013678512535989285,-0.014602713286876678,0.24536538124084473,295.60504150390625,226.24058532714844)"
               opacity="1" style="display: none;">
                <g opacity="1" transform="matrix(1,0,0,1,105.927001953125,-161.32000732421875)">
                    <path fill="rgb(255,255,255)" fill-opacity="1"
                          d=" M0,-24.16900062561035 C11.273109436035156,-24.16900062561035 20.426000595092773,-13.338871002197266 20.426000595092773,0 C20.426000595092773,13.338871002197266 11.273109436035156,24.16900062561035 0,24.16900062561035 C-11.273109436035156,24.16900062561035 -20.426000595092773,13.338871002197266 -20.426000595092773,0 C-20.426000595092773,-13.338871002197266 -11.273109436035156,-24.16900062561035 0,-24.16900062561035z"/>
                </g>
            </g>
            <g transform="matrix(1.140505075454712,-0.20501698553562164,0.2149680256843567,1.1929980516433716,52.421348571777344,351.8956604003906)"
               opacity="1" style="display: block;">
                <g opacity="1" transform="matrix(1,0,0,1,145.42599487304688,-113.83100128173828)">
                    <path fill="rgb(0,0,0)" fill-opacity="1"
                          d=" M0,-24.16900062561035 C8.689000129699707,-24.16900062561035 16.110000610351562,-17.749000549316406 19.062000274658203,-8.699999809265137 C19.94300079345703,-6.000999927520752 20.426000595092773,-3.066999912261963 20.426000595092773,0 C20.426000595092773,2.9730000495910645 19.972000122070312,5.821000099182129 19.142000198364258,8.45199966430664 C16.246000289916992,17.631999969482422 8.767999649047852,24.16900062561035 0,24.16900062561035 C-8.336000442504883,24.16900062561035 -15.505999565124512,18.26099967956543 -18.680999755859375,9.789999961853027 C-19.80299949645996,6.796999931335449 -20.426000595092773,3.484999895095825 -20.426000595092773,0 C-20.426000595092773,-2.872999906539917 -20.00200080871582,-5.627999782562256 -19.225000381469727,-8.184000015258789 C-16.391000747680664,-17.503999710083008 -8.852999687194824,-24.16900062561035 0,-24.16900062561035z"/>
                    <path stroke-linecap="butt" stroke-linejoin="miter" fill-opacity="0" stroke-miterlimit="4"
                          stroke="rgb(0,0,0)" stroke-opacity="1" stroke-width="0"
                          d=" M0,-24.16900062561035 C8.689000129699707,-24.16900062561035 16.110000610351562,-17.749000549316406 19.062000274658203,-8.699999809265137 C19.94300079345703,-6.000999927520752 20.426000595092773,-3.066999912261963 20.426000595092773,0 C20.426000595092773,2.9730000495910645 19.972000122070312,5.821000099182129 19.142000198364258,8.45199966430664 C16.246000289916992,17.631999969482422 8.767999649047852,24.16900062561035 0,24.16900062561035 C-8.336000442504883,24.16900062561035 -15.505999565124512,18.26099967956543 -18.680999755859375,9.789999961853027 C-19.80299949645996,6.796999931335449 -20.426000595092773,3.484999895095825 -20.426000595092773,0 C-20.426000595092773,-2.872999906539917 -20.00200080871582,-5.627999782562256 -19.225000381469727,-8.184000015258789 C-16.391000747680664,-17.503999710083008 -8.852999687194824,-24.16900062561035 0,-24.16900062561035z"/>
                </g>
            </g>
            <g transform="matrix(0.22765091061592102,-0.04404950886964798,0.04590727761387825,0.23817919194698334,165.92971801757812,219.798828125)"
               opacity="1" style="display: block;">
                <g opacity="1" transform="matrix(1,0,0,1,106.50800323486328,-164.6269989013672)">
                    <path fill="rgb(255,255,255)" fill-opacity="1"
                          d=" M0,-24.16900062561035 C11.273109436035156,-24.16900062561035 20.426000595092773,-13.338871002197266 20.426000595092773,0 C20.426000595092773,13.338871002197266 11.273109436035156,24.16900062561035 0,24.16900062561035 C-11.273109436035156,24.16900062561035 -20.426000595092773,13.338871002197266 -20.426000595092773,0 C-20.426000595092773,-13.338871002197266 -11.273109436035156,-24.16900062561035 0,-24.16900062561035z"/>
                </g>
            </g>
            <g transform="matrix(0.24481351673603058,-0.011503193527460098,0.0136296721175313,0.23054423928260803,153.77923583984375,223.66888427734375)"
               opacity="1" style="display: none;">
                <g opacity="1" transform="matrix(1,0,0,1,106.50800323486328,-164.6269989013672)">
                    <path fill="rgb(255,255,255)" fill-opacity="1"
                          d=" M0,-24.16900062561035 C11.273109436035156,-24.16900062561035 20.426000595092773,-13.338871002197266 20.426000595092773,0 C20.426000595092773,13.338871002197266 11.273109436035156,24.16900062561035 0,24.16900062561035 C-11.273109436035156,24.16900062561035 -20.426000595092773,13.338871002197266 -20.426000595092773,0 C-20.426000595092773,-13.338871002197266 -11.273109436035156,-24.16900062561035 0,-24.16900062561035z"/>
                </g>
            </g>
            <g transform="matrix(1.090348720550537,0.1672763228416443,-0.16744737327098846,1.089095115661621,184.3042755126953,165.43487548828125)"
               opacity="1" style="display: block;">
                <g opacity="1" transform="matrix(1,0,0,1,98.04100036621094,61.84400177001953)">
                    <path fill="rgb(255,93,31)" fill-opacity="1"
                          d=" M-81.13147735595703,23.046297073364258 C-84.07855224609375,38.92898941040039 -49.66059494018555,47.17914581298828 -8.732000350952148,38.72100067138672 C35.07046890258789,29.632585525512695 82.93077087402344,-3.259044647216797 63.25020980834961,-14.70560359954834 C64.565185546875,-26.244956970214844 59.84842300415039,-30.98710823059082 27.051801681518555,-22.786802291870117 C9.270431518554688,-18.939485549926758 1.260585069656372,-44.06015396118164 -20.089414596557617,-39.81915283203125 C-43.920413970947266,-35.08515167236328 -39.902809143066406,-6.229504108428955 -60.066001892089844,-2.6649999618530273 C-83.11485290527344,-0.22830669581890106 -90.54595184326172,11.143468856811523 -81.13147735595703,23.046297073364258z"/>
                    <path stroke-linecap="round" stroke-linejoin="round" fill-opacity="0" stroke="rgb(207,53,2)"
                          stroke-opacity="1" stroke-width="8"
                          d=" M-81.13147735595703,23.046297073364258 C-84.07855224609375,38.92898941040039 -49.66059494018555,47.17914581298828 -8.732000350952148,38.72100067138672 C35.07046890258789,29.632585525512695 82.93077087402344,-3.259044647216797 63.25020980834961,-14.70560359954834 C64.565185546875,-26.244956970214844 59.84842300415039,-30.98710823059082 27.051801681518555,-22.786802291870117 C9.270431518554688,-18.939485549926758 1.260585069656372,-44.06015396118164 -20.089414596557617,-39.81915283203125 C-43.920413970947266,-35.08515167236328 -39.902809143066406,-6.229504108428955 -60.066001892089844,-2.6649999618530273 C-83.11485290527344,-0.22830669581890106 -90.54595184326172,11.143468856811523 -81.13147735595703,23.046297073364258z"/>
                </g>
            </g>
            <g transform="matrix(1.090348720550537,0.1672763228416443,-0.16744737327098846,1.089095115661621,193.5170440673828,201.23153686523438)"
               opacity="1" style="display: block;">
                <g opacity="1" transform="matrix(1,0,0,1,81.50399780273438,36.75899887084961)">
                    <path stroke-linecap="round" stroke-linejoin="round" fill-opacity="0" stroke="rgb(125,9,9)"
                          stroke-opacity="1" stroke-width="7.2"
                          d=" M60.57603454589844,-19.833982467651367 C18.73672866821289,15.936172485351562 -47.59282302856445,25.442855834960938 -72.13141632080078,15.224198341369629"/>
                </g>
            </g>
            <g transform="matrix(1.090348720550537,0.1672763228416443,-0.16744737327098846,1.089095115661621,212.8744659423828,204.39413452148438)"
               opacity="1" style="display: block;">
                <g opacity="1" transform="matrix(1,0,0,1,24.70599937438965,22.10700035095215)">
                    <path stroke-linecap="round" stroke-linejoin="round" fill-opacity="0" stroke="rgb(255,180,132)"
                          stroke-opacity="1" stroke-width="8"
                          d=" M-19.274999618530273,16.03499984741211 C-1.7619999647140503,16.913999557495117 7.4670000076293945,7.132999897003174 18.663000106811523,-15.017999649047852"/>
                </g>
            </g>
            <g transform="matrix(-0.7308815121650696,0.6825454235076904,0.6833431720733643,0.7300565242767334,56.02603530883789,191.88966369628906)"
               opacity="1" style="display: block;">
                <path fill="rgb(255,213,39)" fill-opacity="1"
                      d=" M82.33,175.36 C111.31,145.74 89.95,86.51 77.17,52.76 C67.51,29.14 56.05,24.41 45.61,27.24 C36.94,29.36 27.55,42.62 29.41,60.04 C32.8,77.27 39.71,129.7 14.74,140.83"/>
                <g opacity="1" transform="matrix(1,0,0,1,74.38400268554688,100.1780014038086)">
                    <path stroke-linecap="round" stroke-linejoin="miter" fill-opacity="0" stroke-miterlimit="10"
                          stroke="rgb(249,143,22)" stroke-opacity="1" stroke-width="10"
                          d=" M7.947000026702881,75.1780014038086 C36.92300033569336,45.55799865722656 15.56991195678711,-13.66386890411377 2.781359910964966,-47.42030715942383 C-6.872096061706543,-71.04106903076172 -18.330549240112305,-75.7684097290039 -28.777620315551758,-72.93431854248047 C-37.44462203979492,-70.81651306152344 -46.8375244140625,-57.55738067626953 -44.96963882446289,-40.13330841064453 C-41.58668899536133,-22.905168533325195 -34.66976547241211,29.52057456970215 -59.64268112182617,40.6475715637207"/>
                </g>
            </g>
            <g transform="matrix(0.9899985194206238,-0.35123923420906067,0.3516615629196167,0.9888699650764465,290.00390625,173.48220825195312)"
               opacity="1" style="display: block;">
                <g opacity="1" transform="matrix(1,0,0,1,35.28499984741211,48.323001861572266)">
                    <path stroke-linecap="round" stroke-linejoin="round" fill-opacity="0" stroke="rgb(251,237,32)"
                          stroke-opacity="1" stroke-width="8"
                          d=" M-238.13499450683594,18.947999954223633 C-257.26300048828125,4.390999794006348 -262.4549865722656,-23.145999908447266 -268.7919921875,-45.39899826049805"/>
                </g>
            </g>
            <g transform="matrix(0.9899985194206238,-0.35123923420906067,0.3516615629196167,0.9888699650764465,290.00390625,173.48220825195312)"
               opacity="1" style="display: block;">
                <g opacity="1" transform="matrix(1,0,0,1,35.28499984741211,48.323001861572266)">
                    <path stroke-linecap="round" stroke-linejoin="round" fill-opacity="0" stroke="rgb(255,255,255)"
                          stroke-opacity="1" stroke-width="8"
                          d=" M-283.4309997558594,0.16699999570846558 C-286.0639953613281,-19.323999404907227 -291.94000244140625,-38.79100036621094 -284.86700439453125,-51.5"/>
                </g>
            </g>
        </g>
    </g>
</svg>
